<mxfile host="Electron" modified="2023-08-31T11:39:19.785Z" agent="Mozilla/5.0 (Windows NT 10.0; Win64; x64) AppleWebKit/537.36 (KHTML, like Gecko) draw.io/21.6.5 Chrome/114.0.5735.243 Electron/25.3.1 Safari/537.36" etag="4nz7yX5XWyKfHxFYIipu" version="21.6.5" type="device">
  <diagram name="Página-1" id="lpC4gEtnnSHsXfrELIil">
    <mxGraphModel dx="2208" dy="3157" grid="1" gridSize="10" guides="1" tooltips="1" connect="1" arrows="1" fold="1" page="1" pageScale="1" pageWidth="827" pageHeight="1169" math="0" shadow="0">
      <root>
        <mxCell id="0" />
        <mxCell id="1" parent="0" />
        <mxCell id="z0lUYB_K5kEDdbMzrpZi-1" value="Cadrastrar/Atualizar&lt;br&gt;informações do equino" style="ellipse;whiteSpace=wrap;html=1;" parent="1" vertex="1">
          <mxGeometry x="860" y="-920" width="120" height="80" as="geometry" />
        </mxCell>
        <mxCell id="z0lUYB_K5kEDdbMzrpZi-4" style="edgeStyle=orthogonalEdgeStyle;rounded=0;orthogonalLoop=1;jettySize=auto;html=1;entryX=0;entryY=0.5;entryDx=0;entryDy=0;endArrow=none;endFill=0;" parent="1" source="z0lUYB_K5kEDdbMzrpZi-2" target="z0lUYB_K5kEDdbMzrpZi-1" edge="1">
          <mxGeometry relative="1" as="geometry">
            <Array as="points">
              <mxPoint x="390" y="-1010" />
              <mxPoint x="390" y="-920" />
              <mxPoint x="860" y="-920" />
            </Array>
          </mxGeometry>
        </mxCell>
        <mxCell id="z0lUYB_K5kEDdbMzrpZi-25" style="edgeStyle=orthogonalEdgeStyle;rounded=0;orthogonalLoop=1;jettySize=auto;html=1;exitX=0.5;exitY=0.5;exitDx=0;exitDy=0;exitPerimeter=0;entryX=0;entryY=0.5;entryDx=0;entryDy=0;endArrow=none;endFill=0;" parent="1" source="z0lUYB_K5kEDdbMzrpZi-2" target="z0lUYB_K5kEDdbMzrpZi-24" edge="1">
          <mxGeometry relative="1" as="geometry" />
        </mxCell>
        <mxCell id="z0lUYB_K5kEDdbMzrpZi-27" style="edgeStyle=orthogonalEdgeStyle;rounded=0;orthogonalLoop=1;jettySize=auto;html=1;exitX=0.5;exitY=0.5;exitDx=0;exitDy=0;exitPerimeter=0;endArrow=none;endFill=0;" parent="1" source="z0lUYB_K5kEDdbMzrpZi-2" target="z0lUYB_K5kEDdbMzrpZi-26" edge="1">
          <mxGeometry relative="1" as="geometry" />
        </mxCell>
        <mxCell id="z0lUYB_K5kEDdbMzrpZi-33" style="edgeStyle=orthogonalEdgeStyle;rounded=0;orthogonalLoop=1;jettySize=auto;html=1;exitX=0.5;exitY=0.5;exitDx=0;exitDy=0;exitPerimeter=0;endArrow=none;endFill=0;" parent="1" source="z0lUYB_K5kEDdbMzrpZi-2" target="z0lUYB_K5kEDdbMzrpZi-32" edge="1">
          <mxGeometry relative="1" as="geometry">
            <Array as="points">
              <mxPoint x="370" y="-1010" />
              <mxPoint x="370" y="-1060" />
            </Array>
          </mxGeometry>
        </mxCell>
        <mxCell id="z0lUYB_K5kEDdbMzrpZi-62" style="edgeStyle=orthogonalEdgeStyle;rounded=0;orthogonalLoop=1;jettySize=auto;html=1;exitX=0.5;exitY=0.5;exitDx=0;exitDy=0;exitPerimeter=0;entryX=-0.013;entryY=0.554;entryDx=0;entryDy=0;entryPerimeter=0;endArrow=none;endFill=0;" parent="1" source="z0lUYB_K5kEDdbMzrpZi-2" target="z0lUYB_K5kEDdbMzrpZi-61" edge="1">
          <mxGeometry relative="1" as="geometry">
            <Array as="points">
              <mxPoint x="390" y="-1010" />
              <mxPoint x="390" y="-1046" />
            </Array>
          </mxGeometry>
        </mxCell>
        <mxCell id="z0lUYB_K5kEDdbMzrpZi-66" style="edgeStyle=orthogonalEdgeStyle;rounded=0;orthogonalLoop=1;jettySize=auto;html=1;exitX=0.5;exitY=0.5;exitDx=0;exitDy=0;exitPerimeter=0;entryX=0;entryY=0.5;entryDx=0;entryDy=0;endArrow=none;endFill=0;" parent="1" source="z0lUYB_K5kEDdbMzrpZi-2" target="z0lUYB_K5kEDdbMzrpZi-65" edge="1">
          <mxGeometry relative="1" as="geometry">
            <Array as="points">
              <mxPoint x="395" y="-1010" />
              <mxPoint x="395" y="-1020" />
              <mxPoint x="560" y="-1020" />
              <mxPoint x="560" y="-990" />
              <mxPoint x="600" y="-990" />
            </Array>
          </mxGeometry>
        </mxCell>
        <mxCell id="z0lUYB_K5kEDdbMzrpZi-68" style="edgeStyle=orthogonalEdgeStyle;rounded=0;orthogonalLoop=1;jettySize=auto;html=1;exitX=0.5;exitY=0.5;exitDx=0;exitDy=0;exitPerimeter=0;entryX=0.5;entryY=1;entryDx=0;entryDy=0;endArrow=none;endFill=0;" parent="1" source="z0lUYB_K5kEDdbMzrpZi-2" target="z0lUYB_K5kEDdbMzrpZi-67" edge="1">
          <mxGeometry relative="1" as="geometry" />
        </mxCell>
        <mxCell id="z0lUYB_K5kEDdbMzrpZi-78" style="edgeStyle=orthogonalEdgeStyle;rounded=0;orthogonalLoop=1;jettySize=auto;html=1;exitX=0.5;exitY=0.5;exitDx=0;exitDy=0;exitPerimeter=0;entryX=0.5;entryY=0;entryDx=0;entryDy=0;endArrow=none;endFill=0;" parent="1" source="z0lUYB_K5kEDdbMzrpZi-2" target="z0lUYB_K5kEDdbMzrpZi-54" edge="1">
          <mxGeometry relative="1" as="geometry">
            <Array as="points">
              <mxPoint x="540" y="-1010" />
              <mxPoint x="540" y="-1320" />
              <mxPoint x="1060" y="-1320" />
            </Array>
          </mxGeometry>
        </mxCell>
        <mxCell id="z0lUYB_K5kEDdbMzrpZi-79" style="edgeStyle=orthogonalEdgeStyle;rounded=0;orthogonalLoop=1;jettySize=auto;html=1;exitX=0.5;exitY=0.5;exitDx=0;exitDy=0;exitPerimeter=0;endArrow=none;endFill=0;entryX=0;entryY=0.5;entryDx=0;entryDy=0;" parent="1" source="z0lUYB_K5kEDdbMzrpZi-2" target="z0lUYB_K5kEDdbMzrpZi-80" edge="1">
          <mxGeometry relative="1" as="geometry">
            <mxPoint x="190" y="-1310" as="targetPoint" />
          </mxGeometry>
        </mxCell>
        <mxCell id="z0lUYB_K5kEDdbMzrpZi-2" value="Cliente&lt;br&gt;" style="shape=umlActor;verticalLabelPosition=bottom;verticalAlign=top;html=1;outlineConnect=0;" parent="1" vertex="1">
          <mxGeometry x="20" y="-1040" width="30" height="60" as="geometry" />
        </mxCell>
        <mxCell id="z0lUYB_K5kEDdbMzrpZi-12" style="edgeStyle=orthogonalEdgeStyle;rounded=0;orthogonalLoop=1;jettySize=auto;html=1;exitX=0.5;exitY=0.5;exitDx=0;exitDy=0;exitPerimeter=0;entryX=0;entryY=0.5;entryDx=0;entryDy=0;endArrow=none;endFill=0;" parent="1" source="z0lUYB_K5kEDdbMzrpZi-5" target="z0lUYB_K5kEDdbMzrpZi-11" edge="1">
          <mxGeometry relative="1" as="geometry">
            <Array as="points">
              <mxPoint x="352" y="-840" />
              <mxPoint x="352" y="-720" />
            </Array>
          </mxGeometry>
        </mxCell>
        <mxCell id="z0lUYB_K5kEDdbMzrpZi-29" style="edgeStyle=orthogonalEdgeStyle;rounded=0;orthogonalLoop=1;jettySize=auto;html=1;exitX=0.5;exitY=0.5;exitDx=0;exitDy=0;exitPerimeter=0;entryX=0;entryY=0.5;entryDx=0;entryDy=0;endArrow=none;endFill=0;" parent="1" source="z0lUYB_K5kEDdbMzrpZi-5" target="z0lUYB_K5kEDdbMzrpZi-28" edge="1">
          <mxGeometry relative="1" as="geometry">
            <Array as="points">
              <mxPoint x="300" y="-840" />
              <mxPoint x="300" y="-675" />
              <mxPoint x="544" y="-675" />
            </Array>
          </mxGeometry>
        </mxCell>
        <mxCell id="z0lUYB_K5kEDdbMzrpZi-31" style="edgeStyle=orthogonalEdgeStyle;rounded=0;orthogonalLoop=1;jettySize=auto;html=1;exitX=0.5;exitY=0.5;exitDx=0;exitDy=0;exitPerimeter=0;endArrow=none;endFill=0;" parent="1" source="z0lUYB_K5kEDdbMzrpZi-5" target="z0lUYB_K5kEDdbMzrpZi-30" edge="1">
          <mxGeometry relative="1" as="geometry" />
        </mxCell>
        <mxCell id="z0lUYB_K5kEDdbMzrpZi-60" style="edgeStyle=orthogonalEdgeStyle;rounded=0;orthogonalLoop=1;jettySize=auto;html=1;exitX=0.5;exitY=0.5;exitDx=0;exitDy=0;exitPerimeter=0;entryX=0;entryY=0.5;entryDx=0;entryDy=0;endArrow=none;endFill=0;" parent="1" source="z0lUYB_K5kEDdbMzrpZi-5" target="z0lUYB_K5kEDdbMzrpZi-59" edge="1">
          <mxGeometry relative="1" as="geometry">
            <Array as="points">
              <mxPoint x="330" y="-840" />
              <mxPoint x="330" y="-584" />
            </Array>
          </mxGeometry>
        </mxCell>
        <mxCell id="z0lUYB_K5kEDdbMzrpZi-64" style="edgeStyle=orthogonalEdgeStyle;rounded=0;orthogonalLoop=1;jettySize=auto;html=1;exitX=0.5;exitY=0.5;exitDx=0;exitDy=0;exitPerimeter=0;entryX=0.5;entryY=0;entryDx=0;entryDy=0;endArrow=none;endFill=0;" parent="1" target="z0lUYB_K5kEDdbMzrpZi-63" edge="1">
          <mxGeometry relative="1" as="geometry">
            <mxPoint x="172.36" y="-840" as="sourcePoint" />
            <mxPoint x="220" y="-681.17" as="targetPoint" />
            <Array as="points">
              <mxPoint x="260" y="-840" />
            </Array>
          </mxGeometry>
        </mxCell>
        <mxCell id="z0lUYB_K5kEDdbMzrpZi-75" style="edgeStyle=orthogonalEdgeStyle;rounded=0;orthogonalLoop=1;jettySize=auto;html=1;exitX=0.5;exitY=0.5;exitDx=0;exitDy=0;exitPerimeter=0;endArrow=none;endFill=0;" parent="1" source="z0lUYB_K5kEDdbMzrpZi-5" target="z0lUYB_K5kEDdbMzrpZi-74" edge="1">
          <mxGeometry relative="1" as="geometry" />
        </mxCell>
        <mxCell id="z0lUYB_K5kEDdbMzrpZi-86" style="edgeStyle=orthogonalEdgeStyle;rounded=0;orthogonalLoop=1;jettySize=auto;html=1;exitX=0.5;exitY=0.5;exitDx=0;exitDy=0;exitPerimeter=0;entryX=0.5;entryY=0;entryDx=0;entryDy=0;endArrow=none;endFill=0;" parent="1" source="z0lUYB_K5kEDdbMzrpZi-5" target="z0lUYB_K5kEDdbMzrpZi-85" edge="1">
          <mxGeometry relative="1" as="geometry">
            <Array as="points">
              <mxPoint x="200" y="-840" />
              <mxPoint x="200" y="-765" />
              <mxPoint x="190" y="-765" />
            </Array>
          </mxGeometry>
        </mxCell>
        <mxCell id="z0lUYB_K5kEDdbMzrpZi-90" style="edgeStyle=orthogonalEdgeStyle;rounded=0;orthogonalLoop=1;jettySize=auto;html=1;exitX=0.5;exitY=0;exitDx=0;exitDy=0;exitPerimeter=0;endArrow=block;endFill=0;" parent="1" source="z0lUYB_K5kEDdbMzrpZi-5" edge="1">
          <mxGeometry relative="1" as="geometry">
            <mxPoint x="35" y="-960" as="targetPoint" />
          </mxGeometry>
        </mxCell>
        <mxCell id="z0lUYB_K5kEDdbMzrpZi-5" value="Funcionário" style="shape=umlActor;verticalLabelPosition=bottom;verticalAlign=top;html=1;outlineConnect=0;" parent="1" vertex="1">
          <mxGeometry x="20" y="-870" width="30" height="60" as="geometry" />
        </mxCell>
        <mxCell id="z0lUYB_K5kEDdbMzrpZi-11" value="Deletar Informações do equino" style="ellipse;whiteSpace=wrap;html=1;" parent="1" vertex="1">
          <mxGeometry x="370" y="-760" width="120" height="80" as="geometry" />
        </mxCell>
        <mxCell id="z0lUYB_K5kEDdbMzrpZi-24" value="Cadrastrar/Atualizar&lt;br&gt;informações pessoais (login)" style="ellipse;whiteSpace=wrap;html=1;" parent="1" vertex="1">
          <mxGeometry x="750" y="-1010" width="120" height="80" as="geometry" />
        </mxCell>
        <mxCell id="z0lUYB_K5kEDdbMzrpZi-26" value="Consultar relátorio de tratamento&amp;nbsp;" style="ellipse;whiteSpace=wrap;html=1;" parent="1" vertex="1">
          <mxGeometry x="290" y="-1150" width="120" height="80" as="geometry" />
        </mxCell>
        <mxCell id="z0lUYB_K5kEDdbMzrpZi-28" value="Cadastrar/Excluir/Atualizar&amp;nbsp;&lt;br&gt;&amp;nbsp;informações de tratamento dos equinos" style="ellipse;whiteSpace=wrap;html=1;" parent="1" vertex="1">
          <mxGeometry x="544" y="-770" width="176" height="90" as="geometry" />
        </mxCell>
        <mxCell id="z0lUYB_K5kEDdbMzrpZi-30" value="Gerenciar permissões de acesso&amp;nbsp;" style="ellipse;whiteSpace=wrap;html=1;" parent="1" vertex="1">
          <mxGeometry x="450" y="-840" width="120" height="80" as="geometry" />
        </mxCell>
        <mxCell id="z0lUYB_K5kEDdbMzrpZi-32" value="Realizar login no sistema" style="ellipse;whiteSpace=wrap;html=1;" parent="1" vertex="1">
          <mxGeometry x="414" y="-1140" width="120" height="80" as="geometry" />
        </mxCell>
        <mxCell id="z0lUYB_K5kEDdbMzrpZi-37" style="edgeStyle=orthogonalEdgeStyle;rounded=0;orthogonalLoop=1;jettySize=auto;html=1;endArrow=none;endFill=0;entryX=0;entryY=0.5;entryDx=0;entryDy=0;exitX=0.5;exitY=0.5;exitDx=0;exitDy=0;exitPerimeter=0;" parent="1" source="z0lUYB_K5kEDdbMzrpZi-34" target="z0lUYB_K5kEDdbMzrpZi-36" edge="1">
          <mxGeometry relative="1" as="geometry">
            <mxPoint x="60" y="-430" as="sourcePoint" />
            <mxPoint x="660" y="-500" as="targetPoint" />
            <Array as="points">
              <mxPoint x="35" y="-430" />
              <mxPoint x="275" y="-430" />
              <mxPoint x="275" y="-520" />
            </Array>
          </mxGeometry>
        </mxCell>
        <mxCell id="z0lUYB_K5kEDdbMzrpZi-47" style="edgeStyle=orthogonalEdgeStyle;rounded=0;orthogonalLoop=1;jettySize=auto;html=1;exitX=0.5;exitY=0.5;exitDx=0;exitDy=0;exitPerimeter=0;entryX=0;entryY=0.5;entryDx=0;entryDy=0;endArrow=none;endFill=0;" parent="1" source="z0lUYB_K5kEDdbMzrpZi-34" target="z0lUYB_K5kEDdbMzrpZi-44" edge="1">
          <mxGeometry relative="1" as="geometry" />
        </mxCell>
        <mxCell id="z0lUYB_K5kEDdbMzrpZi-48" style="edgeStyle=orthogonalEdgeStyle;rounded=0;orthogonalLoop=1;jettySize=auto;html=1;exitX=0.5;exitY=0.5;exitDx=0;exitDy=0;exitPerimeter=0;entryX=0;entryY=0.5;entryDx=0;entryDy=0;endArrow=none;endFill=0;" parent="1" source="z0lUYB_K5kEDdbMzrpZi-34" target="z0lUYB_K5kEDdbMzrpZi-43" edge="1">
          <mxGeometry relative="1" as="geometry">
            <Array as="points">
              <mxPoint x="190" y="-440" />
              <mxPoint x="190" y="-340" />
              <mxPoint x="270" y="-340" />
            </Array>
          </mxGeometry>
        </mxCell>
        <mxCell id="z0lUYB_K5kEDdbMzrpZi-50" style="edgeStyle=orthogonalEdgeStyle;rounded=0;orthogonalLoop=1;jettySize=auto;html=1;exitX=0.5;exitY=0.5;exitDx=0;exitDy=0;exitPerimeter=0;entryX=0;entryY=0.5;entryDx=0;entryDy=0;endArrow=none;endFill=0;" parent="1" source="z0lUYB_K5kEDdbMzrpZi-34" target="z0lUYB_K5kEDdbMzrpZi-49" edge="1">
          <mxGeometry relative="1" as="geometry">
            <Array as="points">
              <mxPoint x="160" y="-440" />
              <mxPoint x="160" y="-230" />
              <mxPoint x="220" y="-230" />
            </Array>
          </mxGeometry>
        </mxCell>
        <mxCell id="z0lUYB_K5kEDdbMzrpZi-92" style="edgeStyle=orthogonalEdgeStyle;rounded=0;orthogonalLoop=1;jettySize=auto;html=1;exitX=0.5;exitY=0;exitDx=0;exitDy=0;exitPerimeter=0;endArrow=block;endFill=0;" parent="1" source="z0lUYB_K5kEDdbMzrpZi-34" target="z0lUYB_K5kEDdbMzrpZi-2" edge="1">
          <mxGeometry relative="1" as="geometry">
            <Array as="points">
              <mxPoint x="-30" y="-470" />
              <mxPoint x="-30" y="-1010" />
            </Array>
          </mxGeometry>
        </mxCell>
        <mxCell id="z0lUYB_K5kEDdbMzrpZi-34" value="Cliente&lt;br&gt;" style="shape=umlActor;verticalLabelPosition=bottom;verticalAlign=top;html=1;outlineConnect=0;" parent="1" vertex="1">
          <mxGeometry x="20" y="-470" width="30" height="60" as="geometry" />
        </mxCell>
        <mxCell id="z0lUYB_K5kEDdbMzrpZi-40" style="edgeStyle=orthogonalEdgeStyle;rounded=0;orthogonalLoop=1;jettySize=auto;html=1;exitX=0.5;exitY=0;exitDx=0;exitDy=0;entryX=0.5;entryY=1;entryDx=0;entryDy=0;dashed=1;endArrow=open;endFill=0;" parent="1" source="z0lUYB_K5kEDdbMzrpZi-36" target="z0lUYB_K5kEDdbMzrpZi-1" edge="1">
          <mxGeometry relative="1" as="geometry">
            <Array as="points">
              <mxPoint x="750" y="-750" />
              <mxPoint x="920" y="-750" />
            </Array>
          </mxGeometry>
        </mxCell>
        <mxCell id="z0lUYB_K5kEDdbMzrpZi-42" value="&amp;lt;Include&amp;gt;" style="edgeLabel;html=1;align=center;verticalAlign=middle;resizable=0;points=[];" parent="z0lUYB_K5kEDdbMzrpZi-40" vertex="1" connectable="0">
          <mxGeometry x="0.0671" y="-2" relative="1" as="geometry">
            <mxPoint as="offset" />
          </mxGeometry>
        </mxCell>
        <mxCell id="z0lUYB_K5kEDdbMzrpZi-36" value="Colocar cavalo à venda" style="ellipse;whiteSpace=wrap;html=1;" parent="1" vertex="1">
          <mxGeometry x="690" y="-560" width="120" height="80" as="geometry" />
        </mxCell>
        <mxCell id="z0lUYB_K5kEDdbMzrpZi-52" style="edgeStyle=orthogonalEdgeStyle;rounded=0;orthogonalLoop=1;jettySize=auto;html=1;exitX=1;exitY=0.5;exitDx=0;exitDy=0;endArrow=open;endFill=0;dashed=1;" parent="1" source="z0lUYB_K5kEDdbMzrpZi-43" target="z0lUYB_K5kEDdbMzrpZi-51" edge="1">
          <mxGeometry relative="1" as="geometry" />
        </mxCell>
        <mxCell id="z0lUYB_K5kEDdbMzrpZi-53" value="&amp;lt;Include&amp;gt;" style="edgeLabel;html=1;align=center;verticalAlign=middle;resizable=0;points=[];" parent="z0lUYB_K5kEDdbMzrpZi-52" vertex="1" connectable="0">
          <mxGeometry x="-0.4738" y="2" relative="1" as="geometry">
            <mxPoint as="offset" />
          </mxGeometry>
        </mxCell>
        <mxCell id="z0lUYB_K5kEDdbMzrpZi-57" style="edgeStyle=orthogonalEdgeStyle;rounded=0;orthogonalLoop=1;jettySize=auto;html=1;dashed=1;endArrow=open;endFill=0;" parent="1" source="z0lUYB_K5kEDdbMzrpZi-43" target="z0lUYB_K5kEDdbMzrpZi-49" edge="1">
          <mxGeometry relative="1" as="geometry" />
        </mxCell>
        <mxCell id="z0lUYB_K5kEDdbMzrpZi-58" value="&amp;lt;Include&amp;gt;" style="edgeLabel;html=1;align=center;verticalAlign=middle;resizable=0;points=[];" parent="z0lUYB_K5kEDdbMzrpZi-57" vertex="1" connectable="0">
          <mxGeometry x="-0.32" y="-1" relative="1" as="geometry">
            <mxPoint as="offset" />
          </mxGeometry>
        </mxCell>
        <mxCell id="z0lUYB_K5kEDdbMzrpZi-43" value="Comprar cavalo" style="ellipse;whiteSpace=wrap;html=1;" parent="1" vertex="1">
          <mxGeometry x="280" y="-310" width="120" height="80" as="geometry" />
        </mxCell>
        <mxCell id="z0lUYB_K5kEDdbMzrpZi-45" style="edgeStyle=orthogonalEdgeStyle;rounded=0;orthogonalLoop=1;jettySize=auto;html=1;endArrow=open;endFill=0;dashed=1;" parent="1" source="z0lUYB_K5kEDdbMzrpZi-44" target="z0lUYB_K5kEDdbMzrpZi-36" edge="1">
          <mxGeometry relative="1" as="geometry" />
        </mxCell>
        <mxCell id="z0lUYB_K5kEDdbMzrpZi-46" value="&amp;lt;Include&amp;gt;" style="edgeLabel;html=1;align=center;verticalAlign=middle;resizable=0;points=[];" parent="z0lUYB_K5kEDdbMzrpZi-45" vertex="1" connectable="0">
          <mxGeometry x="-0.2324" y="-1" relative="1" as="geometry">
            <mxPoint as="offset" />
          </mxGeometry>
        </mxCell>
        <mxCell id="z0lUYB_K5kEDdbMzrpZi-44" value="Vender cavalo" style="ellipse;whiteSpace=wrap;html=1;" parent="1" vertex="1">
          <mxGeometry x="354" y="-460" width="120" height="80" as="geometry" />
        </mxCell>
        <mxCell id="z0lUYB_K5kEDdbMzrpZi-49" value="Consultar equinos à venda" style="ellipse;whiteSpace=wrap;html=1;" parent="1" vertex="1">
          <mxGeometry x="280" y="-140" width="120" height="80" as="geometry" />
        </mxCell>
        <mxCell id="z0lUYB_K5kEDdbMzrpZi-55" style="edgeStyle=orthogonalEdgeStyle;rounded=0;orthogonalLoop=1;jettySize=auto;html=1;exitX=0.5;exitY=1;exitDx=0;exitDy=0;dashed=1;endArrow=open;endFill=0;" parent="1" source="z0lUYB_K5kEDdbMzrpZi-51" target="z0lUYB_K5kEDdbMzrpZi-54" edge="1">
          <mxGeometry relative="1" as="geometry" />
        </mxCell>
        <mxCell id="z0lUYB_K5kEDdbMzrpZi-56" value="&amp;lt;Include&amp;gt;" style="edgeLabel;html=1;align=center;verticalAlign=middle;resizable=0;points=[];" parent="z0lUYB_K5kEDdbMzrpZi-55" vertex="1" connectable="0">
          <mxGeometry x="0.5549" y="2" relative="1" as="geometry">
            <mxPoint x="-2" y="-22" as="offset" />
          </mxGeometry>
        </mxCell>
        <mxCell id="z0lUYB_K5kEDdbMzrpZi-51" value="Realizar Pagamento" style="ellipse;whiteSpace=wrap;html=1;" parent="1" vertex="1">
          <mxGeometry x="534" y="-310" width="120" height="80" as="geometry" />
        </mxCell>
        <mxCell id="z0lUYB_K5kEDdbMzrpZi-54" value="Cadastrar forma Pagamento" style="ellipse;whiteSpace=wrap;html=1;" parent="1" vertex="1">
          <mxGeometry x="1000" y="-1220" width="120" height="80" as="geometry" />
        </mxCell>
        <mxCell id="z0lUYB_K5kEDdbMzrpZi-59" value="Registrar informações de saúde de um equino " style="ellipse;whiteSpace=wrap;html=1;" parent="1" vertex="1">
          <mxGeometry x="510" y="-629" width="160" height="90" as="geometry" />
        </mxCell>
        <mxCell id="z0lUYB_K5kEDdbMzrpZi-61" value="Visualizar histórico médico de um equino" style="ellipse;whiteSpace=wrap;html=1;" parent="1" vertex="1">
          <mxGeometry x="550" y="-1160" width="130" height="80" as="geometry" />
        </mxCell>
        <mxCell id="z0lUYB_K5kEDdbMzrpZi-63" value="Crud eventos e competições" style="ellipse;whiteSpace=wrap;html=1;" parent="1" vertex="1">
          <mxGeometry x="180" y="-624" width="140" height="80" as="geometry" />
        </mxCell>
        <mxCell id="z0lUYB_K5kEDdbMzrpZi-65" value="Consultar eventos e competições" style="ellipse;whiteSpace=wrap;html=1;" parent="1" vertex="1">
          <mxGeometry x="600" y="-1070" width="120" height="80" as="geometry" />
        </mxCell>
        <mxCell id="z0lUYB_K5kEDdbMzrpZi-69" style="edgeStyle=orthogonalEdgeStyle;rounded=0;orthogonalLoop=1;jettySize=auto;html=1;exitX=1;exitY=0.5;exitDx=0;exitDy=0;endArrow=open;endFill=0;dashed=1;" parent="1" source="z0lUYB_K5kEDdbMzrpZi-67" target="z0lUYB_K5kEDdbMzrpZi-24" edge="1">
          <mxGeometry relative="1" as="geometry" />
        </mxCell>
        <mxCell id="z0lUYB_K5kEDdbMzrpZi-70" value="&amp;lt;Include&amp;gt;" style="edgeLabel;html=1;align=center;verticalAlign=middle;resizable=0;points=[];" parent="z0lUYB_K5kEDdbMzrpZi-69" vertex="1" connectable="0">
          <mxGeometry x="-0.1907" y="2" relative="1" as="geometry">
            <mxPoint as="offset" />
          </mxGeometry>
        </mxCell>
        <mxCell id="z0lUYB_K5kEDdbMzrpZi-71" style="edgeStyle=orthogonalEdgeStyle;rounded=0;orthogonalLoop=1;jettySize=auto;html=1;exitX=1;exitY=0.5;exitDx=0;exitDy=0;dashed=1;dashPattern=8 8;endArrow=open;endFill=0;" parent="1" source="z0lUYB_K5kEDdbMzrpZi-67" target="z0lUYB_K5kEDdbMzrpZi-1" edge="1">
          <mxGeometry relative="1" as="geometry">
            <Array as="points">
              <mxPoint x="290" y="-1230" />
              <mxPoint x="920" y="-1230" />
            </Array>
          </mxGeometry>
        </mxCell>
        <mxCell id="z0lUYB_K5kEDdbMzrpZi-73" value="&amp;lt;Include&amp;gt;" style="edgeLabel;html=1;align=center;verticalAlign=middle;resizable=0;points=[];" parent="z0lUYB_K5kEDdbMzrpZi-71" vertex="1" connectable="0">
          <mxGeometry x="-0.1486" relative="1" as="geometry">
            <mxPoint as="offset" />
          </mxGeometry>
        </mxCell>
        <mxCell id="z0lUYB_K5kEDdbMzrpZi-67" value="Associar equinos a um proprietário&amp;nbsp;" style="ellipse;whiteSpace=wrap;html=1;" parent="1" vertex="1">
          <mxGeometry x="210" y="-1260" width="120" height="80" as="geometry" />
        </mxCell>
        <mxCell id="z0lUYB_K5kEDdbMzrpZi-74" value="Remover um proprietário do sistema" style="ellipse;whiteSpace=wrap;html=1;" parent="1" vertex="1">
          <mxGeometry x="590" y="-900" width="120" height="80" as="geometry" />
        </mxCell>
        <mxCell id="z0lUYB_K5kEDdbMzrpZi-80" value="Emitir faturas de serviços" style="ellipse;whiteSpace=wrap;html=1;" parent="1" vertex="1">
          <mxGeometry x="240" y="-1360" width="110" height="70" as="geometry" />
        </mxCell>
        <mxCell id="z0lUYB_K5kEDdbMzrpZi-87" value="Haras" style="swimlane;whiteSpace=wrap;html=1;" parent="1" vertex="1">
          <mxGeometry x="80" y="-1390" width="1060" height="1350" as="geometry" />
        </mxCell>
        <mxCell id="z0lUYB_K5kEDdbMzrpZi-85" value="Registrar pagamentos recebidos" style="ellipse;whiteSpace=wrap;html=1;" parent="z0lUYB_K5kEDdbMzrpZi-87" vertex="1">
          <mxGeometry x="10" y="670" width="140" height="80" as="geometry" />
        </mxCell>
      </root>
    </mxGraphModel>
  </diagram>
</mxfile>
